<?xml version="1.0" standalone="no"?>
<!DOCTYPE svg PUBLIC "-//W3C//DTD SVG 20010904//EN"
 "http://www.w3.org/TR/2001/REC-SVG-20010904/DTD/svg10.dtd">
<svg version="1.0" xmlns="http://www.w3.org/2000/svg"
 width="250.000000pt" height="250.000000pt" viewBox="0 0 250.000000 250.000000"
 preserveAspectRatio="xMidYMid meet">
<metadata>
Created by potrace 1.16, written by Peter Selinger 2001-2019
</metadata>
<g transform="translate(0.000000,250.000000) scale(0.100000,-0.100000)"
fill="#000000" stroke="none">
<path d="M630 2085 c-10 -12 -3 -24 34 -66 67 -75 74 -122 20 -135 -23 -6 -33
-1 -69 37 -22 24 -48 55 -57 68 -14 20 -20 22 -33 11 -13 -10 -13 -15 -2 -24
7 -6 35 -37 61 -68 37 -45 55 -58 75 -58 28 0 71 36 71 59 0 7 6 11 14 8 17
-7 42 18 27 27 -5 4 -37 40 -69 81 -50 61 -62 72 -72 60z"/>
<path d="M1108 2030 c-353 -64 -606 -330 -649 -683 -23 -190 31 -395 143 -546
32 -42 37 -55 27 -62 -8 -5 -18 -9 -24 -9 -5 0 -34 -16 -64 -34 l-54 -34 56
-16 c32 -9 57 -18 57 -21 0 -2 -19 -38 -41 -80 -41 -76 -45 -102 -12 -73 28
25 103 59 113 53 6 -3 10 -22 10 -41 0 -19 2 -34 4 -34 3 0 35 8 73 17 105 25
308 22 543 -10 107 -15 238 -29 290 -33 92 -6 232 6 311 27 36 9 36 9 31 54
-4 42 -3 45 24 55 38 15 114 63 114 73 0 4 -6 7 -12 7 -7 0 -32 9 -55 19 l-42
20 44 77 c25 43 43 79 41 81 -2 2 -25 -9 -52 -25 -47 -27 -146 -72 -159 -72
-3 0 12 24 34 53 156 206 196 514 98 757 -92 226 -288 401 -522 464 -70 19
-260 29 -327 16z m212 -150 c3 -3 11 -5 18 -6 6 -1 21 -2 31 -2 11 -1 23 -14
29 -31 8 -23 15 -28 31 -24 13 3 21 1 21 -6 0 -7 4 -10 9 -6 5 3 12 1 15 -4 4
-5 1 -13 -5 -17 -8 -5 -8 -8 1 -14 7 -5 3 -12 -14 -23 -16 -11 -23 -23 -20
-32 8 -20 44 -20 44 0 0 18 41 20 71 5 16 -9 17 -14 7 -30 -10 -15 -10 -22 0
-32 9 -9 12 -8 12 6 0 12 5 16 16 12 9 -3 19 -6 24 -6 15 0 21 -36 11 -63 -7
-18 -7 -27 2 -30 9 -3 8 -8 -2 -21 -8 -9 -10 -20 -6 -24 4 -4 10 -2 12 4 3 8
16 6 43 -7 37 -18 38 -20 30 -50 -11 -36 -6 -51 15 -43 8 3 12 15 9 30 -3 17
0 24 11 24 10 0 13 5 9 12 -5 8 0 9 14 6 15 -4 22 -2 22 8 0 8 5 14 12 14 9 0
9 3 0 12 -18 18 -16 44 2 29 11 -9 15 -9 20 1 5 10 7 10 12 1 3 -7 12 -13 20
-13 8 0 14 -7 14 -15 0 -8 5 -15 10 -15 6 0 10 -9 10 -20 0 -17 3 -19 19 -10
25 13 31 13 31 0 0 -6 9 -20 20 -32 24 -26 25 -37 5 -44 -10 -4 -12 -15 -8
-35 4 -21 0 -36 -13 -50 -11 -12 -17 -24 -14 -28 3 -3 -5 -7 -18 -9 -16 -3
-22 -8 -18 -19 3 -8 6 -21 6 -29 0 -9 5 -12 10 -9 22 14 31 -8 11 -26 -12 -11
-21 -25 -21 -30 0 -6 -6 -9 -13 -6 -14 5 -17 -30 -4 -50 5 -8 3 -13 -7 -13 -8
0 -16 6 -19 13 -3 9 -7 9 -20 -2 -14 -11 -17 -11 -17 0 -1 8 -7 2 -15 -12 -27
-49 -95 -74 -95 -34 0 17 -23 25 -41 14 -11 -7 -10 -11 6 -23 20 -15 20 -15
-2 -16 -13 0 -23 -5 -23 -11 0 -6 -7 -8 -16 -5 -8 3 -12 2 -9 -4 3 -6 -2 -10
-12 -10 -11 0 -24 -5 -31 -12 -9 -9 -12 -7 -12 9 0 22 -35 39 -46 22 -3 -5
-10 -7 -15 -4 -5 4 -9 0 -9 -7 -1 -8 -6 -6 -15 5 -14 19 -10 46 9 59 7 5 7 8
1 7 -14 0 -62 -28 -50 -29 6 0 11 -9 12 -21 1 -14 -3 -19 -13 -15 -8 3 -14 -1
-14 -9 0 -8 -5 -15 -11 -15 -6 0 -9 9 -6 20 3 11 3 20 0 20 -14 0 -44 -23 -54
-41 -8 -17 -7 -23 8 -34 17 -13 16 -16 -14 -44 -30 -27 -33 -36 -33 -85 0 -50
4 -60 36 -96 20 -22 44 -40 53 -40 15 0 36 -9 116 -53 l30 -17 -35 0 c-43 0
-431 48 -485 60 -35 8 -33 9 21 5 56 -4 63 -2 86 23 48 52 64 288 22 319 -25
19 -47 16 -114 -12 -33 -14 -68 -25 -79 -25 -10 0 -21 -7 -25 -15 -3 -8 -12
-15 -20 -15 -7 0 -16 -9 -19 -21 -5 -17 -10 -19 -29 -13 -13 4 -31 7 -40 6
-10 0 -18 6 -18 14 0 8 -6 15 -12 15 -18 2 -21 1 -40 -6 -13 -5 -18 -2 -18 10
0 12 -5 15 -22 9 -13 -4 -28 -14 -35 -23 -9 -11 -12 -12 -13 -3 0 9 -7 11 -21
7 -18 -6 -19 -5 -10 13 15 29 15 29 -20 27 -26 -2 -31 2 -36 27 -3 16 -8 26
-11 23 -3 -2 -12 5 -20 16 -9 13 -11 24 -5 28 15 9 26 51 14 51 -6 0 -10 6 -8
13 1 7 -8 12 -20 11 -13 0 -23 4 -23 11 0 6 -5 16 -12 23 -14 14 -18 52 -6 52
4 0 8 9 8 21 0 12 4 18 11 13 6 -3 15 0 20 7 6 10 11 11 17 3 9 -14 55 -11 60
4 2 7 10 12 18 12 8 0 14 8 14 18 1 16 1 16 14 -1 13 -16 14 -16 20 5 6 20 8
21 19 7 8 -11 18 -14 32 -8 11 4 14 8 6 8 -10 1 -11 4 -2 15 8 10 9 16 1 21
-17 10 -11 25 10 25 17 0 19 4 14 27 -6 21 -4 25 8 20 9 -3 21 0 27 6 9 9 14
9 20 -2 5 -7 16 -11 26 -9 16 3 16 4 -2 24 -10 11 -26 23 -35 27 -10 3 -18 13
-18 21 0 9 -6 13 -14 10 -7 -3 -16 2 -20 11 -3 9 1 18 10 22 14 5 14 7 1 14
-18 10 -11 49 8 49 8 0 20 3 28 6 10 3 17 -2 20 -13 3 -13 5 -12 6 7 1 19 4
21 13 12 24 -24 78 -5 78 28 0 7 6 10 14 7 8 -3 17 1 20 9 5 12 10 13 28 4 22
-11 22 -10 -1 8 l-24 20 29 15 c16 9 23 16 15 17 -7 0 -11 6 -8 14 3 8 2 16
-4 18 -11 4 12 58 24 58 5 0 18 -10 28 -22 l20 -23 -7 24 c-5 20 -4 23 12 17
10 -4 15 -4 11 0 -4 5 9 16 29 26 21 10 38 17 39 15 1 -1 7 -11 13 -22 6 -11
12 -14 12 -7 0 6 11 12 25 12 18 0 25 -5 25 -19 0 -11 4 -22 9 -25 12 -8 22
20 14 40 -5 13 -2 15 14 10 14 -5 23 -1 27 10 6 16 19 11 46 -16z m655 -1139
c-20 -34 -34 -65 -31 -69 3 -5 23 -15 46 -22 23 -7 43 -17 45 -20 6 -10 -110
-71 -119 -63 -3 3 -6 20 -6 37 0 63 -9 75 -59 81 -25 4 -59 10 -76 15 -33 8
-33 8 60 35 33 10 85 30 115 45 30 16 56 27 58 25 2 -1 -13 -30 -33 -64z
m-1259 -18 l-68 -47 7 -65 6 -66 -56 -27 c-30 -14 -55 -23 -55 -20 0 4 16 35
34 70 l34 63 -24 9 c-14 6 -36 13 -49 16 -14 3 -22 10 -19 15 9 14 103 60 164
80 92 30 99 23 26 -28z m574 -59 c214 -30 434 -35 538 -12 34 8 62 14 63 14 0
-1 6 -45 13 -99 l12 -97 -37 -10 c-137 -37 -285 -35 -584 7 -260 36 -470 36
-596 -3 -14 -4 -18 6 -23 53 -4 32 -10 79 -13 104 l-5 47 73 12 c41 6 81 13
89 15 40 10 305 -7 470 -31z"/>
<path d="M1822 1967 c-54 -55 -69 -76 -62 -87 8 -12 16 -8 50 25 l41 40 -3
-70 c-2 -41 1 -71 7 -73 6 -1 11 8 13 20 9 83 12 88 42 88 30 0 60 22 60 44 0
17 -36 63 -59 76 -14 7 -31 -5 -89 -63z"/>
<path d="M287 1651 c-3 -14 11 -32 60 -73 l65 -53 -81 -3 c-69 -2 -82 -6 -92
-23 -6 -12 -9 -22 -7 -23 2 -1 37 -12 78 -25 41 -13 86 -30 98 -38 22 -13 23
-13 20 2 -2 11 -30 26 -83 43 l-80 26 87 6 c48 3 90 8 93 12 3 3 -23 30 -59
59 -35 30 -65 57 -65 61 -1 4 35 -5 80 -21 66 -24 82 -26 86 -14 8 19 7 20
-83 46 -43 13 -86 27 -95 31 -11 5 -18 1 -22 -13z"/>
<path d="M368 1278 l-46 -40 -30 22 c-55 41 -92 4 -77 -76 5 -31 9 -35 28 -30
12 3 59 6 104 6 72 0 81 2 77 18 -4 14 -14 16 -57 14 l-52 -3 54 49 c31 28 52
54 50 64 -3 12 -14 7 -51 -24z"/>
</g>
</svg>
